<svg xmlns="http://www.w3.org/2000/svg" viewBox="0 0 1200 630" font-family="system-ui,-apple-system,'Segoe UI',Arial,sans-serif">
  <defs>
    <pattern id="g" width="50" height="50" patternUnits="userSpaceOnUse">
      <path d="M50 0L0 0 0 50" fill="none" stroke="#1a1e2b" stroke-width="0.7"/>
    </pattern>
    <radialGradient id="gl1" cx="35%" cy="50%" r="65%">
      <stop offset="0%" stop-color="#7c5cfc" stop-opacity="0.15"/>
      <stop offset="100%" stop-color="#7c5cfc" stop-opacity="0"/>
    </radialGradient>
    <radialGradient id="gl2" cx="88%" cy="40%" r="55%">
      <stop offset="0%" stop-color="#5ba0ff" stop-opacity="0.10"/>
      <stop offset="100%" stop-color="#5ba0ff" stop-opacity="0"/>
    </radialGradient>
    <linearGradient id="topbar" x1="0%" y1="0%" x2="100%" y2="0%">
      <stop offset="0%" stop-color="#7c5cfc" stop-opacity="0"/>
      <stop offset="25%" stop-color="#7c5cfc"/>
      <stop offset="75%" stop-color="#5ba0ff"/>
      <stop offset="100%" stop-color="#5ba0ff" stop-opacity="0"/>
    </linearGradient>
    <radialGradient id="nodeGlow" cx="50%" cy="50%" r="50%">
      <stop offset="0%" stop-color="#7c5cfc" stop-opacity="0.9"/>
      <stop offset="100%" stop-color="#7c5cfc" stop-opacity="0"/>
    </radialGradient>
  </defs>
  <rect width="1200" height="630" fill="#0d0f14"/>
  <rect width="1200" height="630" fill="url(#g)"/>
  <rect width="1200" height="630" fill="url(#gl1)"/>
  <rect width="1200" height="630" fill="url(#gl2)"/>
  <rect x="0" y="0" width="1200" height="4" fill="url(#topbar)"/>
  <rect x="0" y="626" width="1200" height="4" fill="#7c5cfc" opacity="0.55"/>
  <rect x="0" y="0" width="4" height="630" fill="#7c5cfc" opacity="0.55"/>

  <!-- BRAND: logo mark + name -->
  <g transform="translate(52, 46)">
    <rect width="54" height="54" rx="11" fill="#141720" stroke="#232840" stroke-width="1.2"/>
    <path d="M13 41 L27 13 L41 41" stroke="#ffffff" stroke-width="3" stroke-linecap="round" stroke-linejoin="round" fill="none"/>
    <line x1="20" y1="33" x2="34" y2="33" stroke="#ffffff" stroke-width="3" stroke-linecap="round"/>
    <circle cx="40.5" cy="40.5" r="5.5" fill="#00e07a"/>
  </g>
  <text x="122" y="68" fill="#ffffff" font-size="20" font-weight="700" letter-spacing="-0.3">Alternative<tspan fill="#00e07a">Entrepreneur</tspan></text>
  <text x="122" y="90" fill="#5c6080" font-size="14">alternativeentrepreneur.com</text>
  <!-- Vertical divider content/visual -->
  <line x1="806" y1="128" x2="806" y2="522" stroke="#232840" stroke-width="1"/>

  <!-- Right: neural network visualization -->
  <g transform="translate(820, 120)">
    <!-- Connecting lines (drawn first, behind nodes) -->
    <!-- Input layer to hidden layer -->
    <line x1="40" y1="90"  x2="160" y2="60"  stroke="#7c5cfc" stroke-width="1" opacity="0.25"/>
    <line x1="40" y1="90"  x2="160" y2="140" stroke="#7c5cfc" stroke-width="1" opacity="0.25"/>
    <line x1="40" y1="90"  x2="160" y2="220" stroke="#7c5cfc" stroke-width="1" opacity="0.15"/>
    <line x1="40" y1="185" x2="160" y2="60"  stroke="#7c5cfc" stroke-width="1" opacity="0.15"/>
    <line x1="40" y1="185" x2="160" y2="140" stroke="#7c5cfc" stroke-width="1.5" opacity="0.35"/>
    <line x1="40" y1="185" x2="160" y2="220" stroke="#7c5cfc" stroke-width="1.5" opacity="0.35"/>
    <line x1="40" y1="280" x2="160" y2="140" stroke="#7c5cfc" stroke-width="1" opacity="0.2"/>
    <line x1="40" y1="280" x2="160" y2="220" stroke="#7c5cfc" stroke-width="1.5" opacity="0.4"/>
    <line x1="40" y1="280" x2="160" y2="300" stroke="#7c5cfc" stroke-width="1" opacity="0.2"/>
    <line x1="40" y1="375" x2="160" y2="220" stroke="#5ba0ff" stroke-width="1" opacity="0.2"/>
    <line x1="40" y1="375" x2="160" y2="300" stroke="#5ba0ff" stroke-width="1.5" opacity="0.4"/>
    <!-- Hidden to output layer -->
    <line x1="160" y1="60"  x2="280" y2="140" stroke="#5ba0ff" stroke-width="1" opacity="0.2"/>
    <line x1="160" y1="140" x2="280" y2="140" stroke="#5ba0ff" stroke-width="2" opacity="0.5"/>
    <line x1="160" y1="140" x2="280" y2="260" stroke="#5ba0ff" stroke-width="1" opacity="0.2"/>
    <line x1="160" y1="220" x2="280" y2="140" stroke="#00e07a" stroke-width="2" opacity="0.5"/>
    <line x1="160" y1="220" x2="280" y2="260" stroke="#00e07a" stroke-width="2" opacity="0.5"/>
    <line x1="160" y1="300" x2="280" y2="260" stroke="#5ba0ff" stroke-width="1.5" opacity="0.35"/>
    <!-- Input nodes -->
    <circle cx="40" cy="90"  r="16" fill="#141720" stroke="#7c5cfc" stroke-width="2"/>
    <text x="40" y="95" fill="#7c5cfc" font-size="11" font-weight="700" text-anchor="middle">AI</text>
    <circle cx="40" cy="185" r="16" fill="#141720" stroke="#7c5cfc" stroke-width="2"/>
    <text x="40" y="190" fill="#7c5cfc" font-size="11" font-weight="700" text-anchor="middle">SEO</text>
    <circle cx="40" cy="280" r="16" fill="#141720" stroke="#7c5cfc" stroke-width="2"/>
    <text x="40" y="285" fill="#7c5cfc" font-size="9" font-weight="700" text-anchor="middle">COPY</text>
    <circle cx="40" cy="375" r="16" fill="#141720" stroke="#5ba0ff" stroke-width="2"/>
    <text x="40" y="380" fill="#5ba0ff" font-size="9" font-weight="700" text-anchor="middle">VIDEO</text>
    <!-- Hidden layer nodes -->
    <circle cx="160" cy="60"  r="20" fill="#1a1e2b" stroke="#7c5cfc" stroke-width="2.5" opacity="0.8"/>
    <circle cx="160" cy="140" r="24" fill="#1a1e2b" stroke="#7c5cfc" stroke-width="3"/>
    <circle cx="160" cy="220" r="24" fill="#1a1e2b" stroke="#00e07a" stroke-width="3"/>
    <circle cx="160" cy="300" r="20" fill="#1a1e2b" stroke="#5ba0ff" stroke-width="2.5" opacity="0.8"/>
    <!-- Output nodes -->
    <circle cx="280" cy="140" r="28" fill="#1a1e2b" stroke="#00e07a" stroke-width="3"/>
    <text x="280" y="136" fill="#00e07a" font-size="10" font-weight="700" text-anchor="middle">TRAFFIC</text>
    <text x="280" y="150" fill="#00e07a" font-size="10" font-weight="700" text-anchor="middle">+CASH</text>
    <circle cx="280" cy="260" r="28" fill="#1a1e2b" stroke="#5ba0ff" stroke-width="2.5"/>
    <text x="280" y="256" fill="#5ba0ff" font-size="10" font-weight="700" text-anchor="middle">AUTO</text>
    <text x="280" y="270" fill="#5ba0ff" font-size="10" font-weight="700" text-anchor="middle">SCALE</text>
    <!-- Layer labels -->
    <text x="40"  y="438" fill="#5c6080" font-size="11" text-anchor="middle" letter-spacing="0.06em">INPUT</text>
    <text x="160" y="438" fill="#5c6080" font-size="11" text-anchor="middle" letter-spacing="0.06em">OPTIMIZE</text>
    <text x="280" y="438" fill="#5c6080" font-size="11" text-anchor="middle" letter-spacing="0.06em">OUTPUT</text>
  </g>

  <!-- Tool badges in right area -->
  <g transform="translate(1130, 155)">
    <rect x="-96" width="96" height="28" rx="8" fill="rgba(124,92,252,0.12)" stroke="rgba(124,92,252,0.3)" stroke-width="1"/>
    <text x="-48" y="19" fill="#7c5cfc" font-size="12" font-weight="700" text-anchor="middle">Claude AI</text>
  </g>
  <g transform="translate(1130, 195)">
    <rect x="-96" width="96" height="28" rx="8" fill="rgba(91,160,255,0.12)" stroke="rgba(91,160,255,0.3)" stroke-width="1"/>
    <text x="-48" y="19" fill="#5ba0ff" font-size="12" font-weight="700" text-anchor="middle">ChatGPT</text>
  </g>
  <g transform="translate(1130, 235)">
    <rect x="-96" width="96" height="28" rx="8" fill="rgba(0,224,122,0.10)" stroke="rgba(0,224,122,0.25)" stroke-width="1"/>
    <text x="-48" y="19" fill="#00e07a" font-size="12" font-weight="700" text-anchor="middle">Suno AI</text>
  </g>
  <g transform="translate(1130, 275)">
    <rect x="-96" width="96" height="28" rx="8" fill="rgba(255,157,74,0.10)" stroke="rgba(255,157,74,0.25)" stroke-width="1"/>
    <text x="-48" y="19" fill="#ff9d4a" font-size="12" font-weight="700" text-anchor="middle">Sora AI</text>
  </g>

  <!-- EYEBROW BADGE -->
  <g transform="translate(52, 138)">
    <rect width="216" height="32" rx="16" fill="rgba(124,92,252,0.10)" stroke="rgba(124,92,252,0.30)" stroke-width="1"/>
    <circle cx="20" cy="16" r="5" fill="#7c5cfc"/>
    <text x="36" y="21.5" fill="#7c5cfc" font-size="12" font-weight="700" letter-spacing="0.12em">AI TOOLS REVIEWED · 2026</text>
  </g>

  <!-- MAIN HEADLINE -->
  <text x="52" y="265" fill="#ffffff" font-size="88" font-weight="900" letter-spacing="-3.5">The AI Tools</text>
  <text x="52" y="362" fill="#7c5cfc" font-size="88" font-weight="900" letter-spacing="-3.5">That Pay Off</text>

  <!-- TAGLINE -->
  <text x="52" y="418" fill="#8b90a7" font-size="21" letter-spacing="-0.2">Claude · ChatGPT · Suno · Sora — tested, ranked, field-proven</text>

  <line x1="52" y1="446" x2="756" y2="446" stroke="#1a1e2b" stroke-width="1.2"/>

  <!-- PILLS -->
  <g transform="translate(52, 464)">
    <rect width="118" height="34" rx="17" fill="rgba(124,92,252,0.08)" stroke="rgba(124,92,252,0.22)" stroke-width="1"/>
    <text x="59" y="22.5" fill="#7c5cfc" font-size="12" font-weight="700" text-anchor="middle" letter-spacing="0.07em">REVIEWED</text>
  </g>
  <g transform="translate(184, 464)">
    <rect width="104" height="34" rx="17" fill="rgba(124,92,252,0.08)" stroke="rgba(124,92,252,0.22)" stroke-width="1"/>
    <text x="52" y="22.5" fill="#7c5cfc" font-size="12" font-weight="700" text-anchor="middle" letter-spacing="0.07em">RANKED</text>
  </g>
  <g transform="translate(302, 464)">
    <rect width="174" height="34" rx="17" fill="rgba(124,92,252,0.08)" stroke="rgba(124,92,252,0.22)" stroke-width="1"/>
    <text x="87" y="22.5" fill="#7c5cfc" font-size="12" font-weight="700" text-anchor="middle" letter-spacing="0.07em">UPDATED 2026</text>
  </g>
  <g transform="translate(490, 464)">
    <rect width="146" height="34" rx="17" fill="rgba(0,224,122,0.08)" stroke="rgba(0,224,122,0.22)" stroke-width="1"/>
    <text x="73" y="22.5" fill="#00e07a" font-size="12" font-weight="700" text-anchor="middle" letter-spacing="0.07em">FREE GUIDES</text>
  </g>
</svg>